<?xml version="1.0" encoding="UTF-8"?>
<svg width="125px" height="170px" viewBox="0 0 412 474" version="1.1" xmlns="http://www.w3.org/2000/svg" xmlns:xlink="http://www.w3.org/1999/xlink">
    <!-- Generator: Sketch 45.2 (43514) - http://www.bohemiancoding.com/sketch -->
    <title>git-hexagon</title>
    <desc>Created with Sketch.</desc>
    <defs></defs>
    <g id="Page-1" stroke="none" stroke-width="1" fill="none" fill-rule="evenodd">
        <g id="git-icon" transform="translate(4.000000, 4.000000)">
            <polygon id="Polygon" stroke="#f2f2f2" stroke-width="8" points="202.007289 0 404.014579 116.628963 404.014579 349.886889 202.007289 466.515852 1.13686838e-13 349.886889 -1.42108547e-14 116.628963"></polygon>
            <path d="M325.172,221.594 L213.4,109.828 C206.967,103.391 196.527,103.391 190.086,109.828 L166.876,133.038 L196.319,162.481 C203.161,160.169 211.007,161.72 216.461,167.174 C221.941,172.663 223.481,180.576 221.113,187.44 L249.488,215.816 C256.353,213.451 264.274,214.981 269.757,220.473 C277.42,228.133 277.42,240.548 269.757,248.213 C262.092,255.879 249.677,255.879 242.008,248.213 C236.244,242.443 234.82,233.978 237.738,226.877 L211.276,200.415 L211.273,270.052 C213.191277,271.000485 214.94329,272.25337 216.461,273.762 C224.124,281.422 224.124,293.838 216.461,301.509 C208.796,309.171 196.375,309.171 188.721,301.509 C181.058,293.838 181.058,281.423 188.721,273.763 C190.557388,271.925686 192.739785,270.470641 195.142,269.482 L195.142,199.196 C192.73629,198.213936 190.552661,196.75807 188.721,194.915 C182.915,189.117 181.519,180.598 184.494,173.469 L155.47,144.442 L78.83,221.077 C72.39,227.52 72.39,237.961 78.83,244.399 L190.604,356.167 C197.039,362.605 207.477,362.605 213.92,356.167 L325.171,244.918 C331.609,238.478 331.609,228.031 325.171,221.594" id="Shape" fill="#DE4C36" fill-rule="nonzero"></path>
        </g>
    </g>
</svg>