<?xml version="1.0" encoding="UTF-8"?>
<svg width="125px" height="170px" viewBox="0 0 491 566" version="1.1" xmlns="http://www.w3.org/2000/svg" xmlns:xlink="http://www.w3.org/1999/xlink">
    <!-- Generator: Sketch 45.2 (43514) - http://www.bohemiancoding.com/sketch -->
    <title>html5-hexagon</title>
    <desc>Created with Sketch.</desc>
    <defs></defs>
    <g id="Page-1" stroke="none" stroke-width="1" fill="none" fill-rule="evenodd">
        <g id="html-5" transform="translate(4.000000, 4.000000)">
            <polygon id="Polygon" stroke="#f2f2f2" stroke-width="9" points="241.770212 0 483.540424 139.586097 483.540424 418.758291 241.770212 558.344388 1.49213975e-13 418.758291 -7.10542736e-15 139.586097"></polygon>
            <polygon id="Shape" fill="#E44D26" fill-rule="nonzero" points="369.555 169.766 346.314 430.126 241.844 459.088 137.662 430.166 114.445 169.766"></polygon>
            <polygon id="Shape" fill="#F16529" fill-rule="nonzero" points="242 436.95 326.417 413.547 346.277 191.057 242 191.057"></polygon>
            <path d="M196.82,254.932 L242,254.932 L242,222.995 L161.917,222.995 L162.681,231.563 L170.531,319.573 L242,319.573 L242,287.636 L199.739,287.636 L196.82,254.932 L196.82,254.932 Z M204.018,335.542 L171.958,335.542 L176.432,385.688 L241.853,403.848 L242,403.808 L242,370.58 L241.86,370.617 L206.292,361.013 L204.018,335.542 L204.018,335.542 Z" id="Shape" fill="#EBEBEB" fill-rule="nonzero"></path>
            <path d="M138.18,99 L154.41,99 L154.41,115.035 L169.257,115.035 L169.257,99 L185.488,99 L185.488,147.558 L169.258,147.558 L169.258,131.298 L154.411,131.298 L154.411,147.558 L138.181,147.558 L138.181,99 L138.18,99 Z M206.83,115.103 L192.544,115.103 L192.544,99 L237.358,99 L237.358,115.103 L223.063,115.103 L223.063,147.558 L206.833,147.558 L206.833,115.103 L206.832,115.103 L206.83,115.103 Z M244.47,99 L261.393,99 L271.803,116.062 L282.203,99 L299.133,99 L299.133,147.558 L282.969,147.558 L282.969,123.49 L271.803,140.755 L271.523,140.755 L260.35,123.49 L260.35,147.558 L244.47,147.558 L244.47,99 Z M307.21,99 L323.445,99 L323.445,131.508 L346.269,131.508 L346.269,147.558 L307.209,147.558 L307.209,99 L307.21,99 Z" id="Shape" fill="#000000" fill-rule="nonzero"></path>
            <path d="M241.89,319.573 L281.217,319.573 L277.509,360.993 L241.889,370.607 L241.889,403.833 L307.362,385.688 L307.842,380.292 L315.348,296.212 L316.127,287.636 L241.89,287.636 L241.89,319.573 Z M241.89,254.854 L241.89,254.932 L319.033,254.932 L319.673,247.754 L321.129,231.563 L321.892,222.995 L241.89,222.995 L241.89,254.855 L241.89,254.854 Z" id="Shape" fill="#FFFFFF" fill-rule="nonzero"></path>
        </g>
    </g>
</svg>