<?xml version="1.0" encoding="UTF-8"?>
<svg width="125px" height="170px" viewBox="0 0 295 340" version="1.1" xmlns="http://www.w3.org/2000/svg" xmlns:xlink="http://www.w3.org/1999/xlink">
    <!-- Generator: Sketch 45.2 (43514) - http://www.bohemiancoding.com/sketch -->
    <title>javascript-hexagon</title>
    <desc>Created with Sketch.</desc>
    <defs></defs>
    <g id="Page-1" stroke="none" stroke-width="1" fill="none" fill-rule="evenodd">
        <g id="javascript" transform="translate(4.000000, 4.000000)">
            <polygon id="Polygon" stroke="#f2f2f2" stroke-width="6" fill="" points="143.74007 0 287.48014 82.9883682 287.48014 248.965105 143.74007 331.953473 7.10542736e-14 248.965105 -2.13162821e-14 82.9883682"></polygon>
            <path d="M102.001,223.779 L121.591,211.923 C125.371,218.624 128.809,224.294 137.056,224.294 C144.961,224.294 149.946,221.202 149.946,209.174 L149.946,127.376 L174.003,127.376 L174.003,209.514 C174.003,234.431 159.397,245.773 138.087,245.773 C118.842,245.773 107.671,235.806 102,223.777 M187.07,221.201 L206.658,209.86 C211.815,218.281 218.517,224.467 230.373,224.467 C240.342,224.467 246.698,219.483 246.698,212.609 C246.698,204.361 240.168,201.439 229.17,196.629 L223.157,194.049 C205.8,186.662 194.287,177.382 194.287,157.792 C194.287,139.748 208.034,126 229.515,126 C244.809,126 255.807,131.328 263.711,145.247 L244.979,157.277 C240.854,149.888 236.388,146.967 229.514,146.967 C222.468,146.967 218,151.435 218,157.277 C218,164.494 222.468,167.417 232.778,171.885 L238.792,174.462 C259.242,183.227 270.755,192.162 270.755,212.266 C270.755,233.92 253.743,245.776 230.888,245.776 C208.549,245.776 194.114,235.122 187.069,221.202" id="Shape" fill="#F7DF1E" fill-rule="nonzero"></path>
        </g>
    </g>
</svg>